<svg width="34" height="35" viewBox="0 0 34 35" fill="none" xmlns="http://www.w3.org/2000/svg">
<circle cx="17.0001" cy="17.3805" r="16.7999" fill="#F53838"/>
<path d="M22.2502 17.3806C22.2502 18.773 21.6971 20.1083 20.7125 21.0929C19.7279 22.0774 18.3926 22.6306 17.0002 22.6306C15.6078 22.6306 14.2725 22.0774 13.2879 21.0929C12.3033 20.1083 11.7502 18.773 11.7502 17.3806C11.7502 17.0813 11.7817 16.7891 11.8359 16.5056H10.0002V23.5003C10.0002 23.9868 10.3939 24.3806 10.8804 24.3806H23.1217C23.3549 24.3801 23.5783 24.2872 23.743 24.1221C23.9077 23.9571 24.0002 23.7335 24.0002 23.5003V16.5056H22.1644C22.2187 16.7891 22.2502 17.0813 22.2502 17.3806ZM17.0002 20.8806C17.4599 20.8805 17.9152 20.7898 18.3399 20.6137C18.7646 20.4377 19.1504 20.1797 19.4754 19.8546C19.8004 19.5294 20.0582 19.1434 20.234 18.7186C20.4099 18.2938 20.5003 17.8386 20.5002 17.3788C20.5001 16.9191 20.4094 16.4639 20.2334 16.0392C20.0573 15.6145 19.7994 15.2286 19.4742 14.9036C19.149 14.5786 18.763 14.3208 18.3382 14.145C17.9135 13.9691 17.4582 13.8787 16.9984 13.8788C16.07 13.8791 15.1796 14.2481 14.5232 14.9048C13.8668 15.5615 13.4982 16.4521 13.4984 17.3806C13.4987 18.3091 13.8677 19.1994 14.5244 19.8558C15.1812 20.5122 16.0717 20.8808 17.0002 20.8806ZM21.2002 13.7056H23.2984C23.4378 13.7056 23.5716 13.6503 23.6703 13.5519C23.769 13.4535 23.8247 13.32 23.8252 13.1806V11.0823C23.8252 10.9426 23.7697 10.8086 23.6709 10.7098C23.5721 10.6111 23.4382 10.5556 23.2984 10.5556H21.2002C21.0605 10.5556 20.9265 10.6111 20.8277 10.7098C20.7289 10.8086 20.6734 10.9426 20.6734 11.0823V13.1806C20.6752 13.4693 20.9114 13.7056 21.2002 13.7056ZM17.0002 0.580566C12.5446 0.580566 8.27141 2.35056 5.1208 5.50117C1.97019 8.65178 0.200195 12.9249 0.200195 17.3806C0.200195 21.8362 1.97019 26.1094 5.1208 29.26C8.27141 32.4106 12.5446 34.1806 17.0002 34.1806C19.2064 34.1806 21.391 33.746 23.4293 32.9017C25.4676 32.0575 27.3196 30.82 28.8796 29.26C30.4396 27.6999 31.6771 25.8479 32.5214 23.8097C33.3657 21.7714 33.8002 19.5868 33.8002 17.3806C33.8002 15.1744 33.3657 12.9898 32.5214 10.9515C31.6771 8.91322 30.4396 7.0612 28.8796 5.50117C27.3196 3.94115 25.4676 2.70367 23.4293 1.85939C21.391 1.01511 19.2064 0.580566 17.0002 0.580566ZM25.7502 24.1863C25.7502 25.2556 24.8752 26.1306 23.8059 26.1306H10.1944C9.1252 26.1306 8.2502 25.2556 8.2502 24.1863V10.5748C8.2502 9.50557 9.1252 8.63057 10.1944 8.63057H23.8059C24.8752 8.63057 25.7502 9.50557 25.7502 10.5748V24.1863Z" fill="white"/>
</svg>
