<svg width="25" height="24" viewBox="0 0 25 24" fill="none" xmlns="http://www.w3.org/2000/svg">
<path d="M10.581 16.7299C10.4497 16.7302 10.3197 16.7045 10.1983 16.6544C10.077 16.6043 9.96678 16.5307 9.87396 16.4379L5.63196 12.1949C5.53639 12.1027 5.46013 11.9924 5.40763 11.8705C5.35514 11.7485 5.32746 11.6173 5.32622 11.4845C5.32497 11.3517 5.35018 11.22 5.40037 11.0971C5.45057 10.9742 5.52474 10.8625 5.61857 10.7685C5.71239 10.6746 5.82399 10.6002 5.94685 10.5499C6.06971 10.4995 6.20137 10.4741 6.33415 10.4752C6.46693 10.4762 6.59816 10.5037 6.7202 10.556C6.84225 10.6083 6.95264 10.6845 7.04496 10.7799L10.58 14.3149L16.945 7.95189C17.1325 7.76425 17.3868 7.65879 17.6521 7.65869C17.9174 7.6586 18.1718 7.76389 18.3595 7.95139C18.5471 8.1389 18.6526 8.39327 18.6527 8.65854C18.6528 8.92381 18.5475 9.17825 18.36 9.36589L11.288 16.4379C11.1951 16.5307 11.0849 16.6043 10.9636 16.6544C10.8423 16.7045 10.7122 16.7302 10.581 16.7299Z" fill="#2FAB73"/>
</svg>
