<svg width="16" height="17" viewBox="0 0 16 17" fill="none" xmlns="http://www.w3.org/2000/svg">
<path d="M14.1892 6.16509L10.222 5.58853L8.44859 1.99322C8.40015 1.89478 8.32046 1.81509 8.22203 1.76666C7.97515 1.64478 7.67515 1.74634 7.55171 1.99322L5.77828 5.58853L1.81109 6.16509C1.70171 6.18072 1.60171 6.23228 1.52515 6.31041C1.43259 6.40554 1.38159 6.53353 1.38334 6.66625C1.3851 6.79897 1.43948 6.92557 1.53453 7.01822L4.40484 9.81666L3.72671 13.7682C3.71081 13.8601 3.72098 13.9547 3.75608 14.0411C3.79117 14.1276 3.84978 14.2024 3.92526 14.2572C4.00074 14.3121 4.09007 14.3446 4.18312 14.3513C4.27617 14.3579 4.36922 14.3383 4.45171 14.2948L8.00015 12.4292L11.5486 14.2948C11.6455 14.3463 11.758 14.3635 11.8658 14.3448C12.1377 14.2979 12.3205 14.0401 12.2736 13.7682L11.5955 9.81666L14.4658 7.01822C14.5439 6.94166 14.5955 6.84166 14.6111 6.73228C14.6533 6.45884 14.4627 6.20572 14.1892 6.16509Z" fill="#FEA250"/>
</svg>
