<svg width="35" height="35" viewBox="0 0 35 35" fill="none" xmlns="http://www.w3.org/2000/svg">
<circle cx="17.4" cy="17.3805" r="16.7999" fill="#F53838"/>
<path d="M17.4001 0.580566C8.1216 0.580566 0.600098 8.10207 0.600098 17.3806C0.600098 26.6591 8.1216 34.1806 17.4001 34.1806C26.6786 34.1806 34.2001 26.6591 34.2001 17.3806C34.2001 8.10207 26.6786 0.580566 17.4001 0.580566ZM24.2339 14.3426C24.2409 14.4861 24.2426 14.6296 24.2426 14.7696C24.2426 19.1446 20.9159 24.1863 14.8294 24.1863C13.0309 24.1893 11.2698 23.6728 9.75785 22.6988C10.0151 22.7303 10.2793 22.7426 10.5471 22.7426C12.0976 22.7426 13.5239 22.2158 14.6561 21.3268C13.9661 21.3133 13.2975 21.0848 12.7435 20.6732C12.1896 20.2617 11.7778 19.6875 11.5656 19.0308C12.0611 19.125 12.5716 19.1053 13.0583 18.9731C12.3094 18.8216 11.6359 18.4158 11.1521 17.8245C10.6682 17.2331 10.4038 16.4926 10.4036 15.7286V15.6883C10.8498 15.9351 11.3608 16.0856 11.9033 16.1031C11.2012 15.6357 10.7042 14.9177 10.5139 14.0961C10.3236 13.2744 10.4544 12.411 10.8796 11.6826C11.7108 12.7046 12.7473 13.5406 13.9221 14.1366C15.0969 14.7326 16.3837 15.0752 17.6994 15.1423C17.5321 14.4324 17.6041 13.687 17.9041 13.0222C18.2042 12.3574 18.7154 11.8103 19.3585 11.466C20.0015 11.1218 20.7403 10.9996 21.4599 11.1185C22.1796 11.2374 22.8397 11.5907 23.3379 12.1236C24.0784 11.9771 24.7886 11.7054 25.4379 11.3203C25.191 12.0871 24.6743 12.7381 23.9836 13.1526C24.6396 13.0736 25.2801 12.8972 25.8841 12.6293C25.4405 13.2941 24.8816 13.8743 24.2339 14.3426Z" fill="white"/>
</svg>
