<svg width="55" height="56" viewBox="0 0 55 56" fill="none" xmlns="http://www.w3.org/2000/svg">
<rect y="0.0493164" width="55" height="55" rx="27.5" fill="#FFECEC"/>
<path fill-rule="evenodd" clip-rule="evenodd" d="M27.5001 26.3494C28.4549 26.3494 29.3706 25.9701 30.0457 25.295C30.7208 24.6199 31.1001 23.7042 31.1001 22.7494C31.1001 21.7946 30.7208 20.879 30.0457 20.2038C29.3706 19.5287 28.4549 19.1494 27.5001 19.1494C26.5453 19.1494 25.6296 19.5287 24.9545 20.2038C24.2794 20.879 23.9001 21.7946 23.9001 22.7494C23.9001 23.7042 24.2794 24.6199 24.9545 25.295C25.6296 25.9701 26.5453 26.3494 27.5001 26.3494ZM22.3988 37.1494C20.577 37.1494 19.0423 35.618 19.7395 33.9349C20.1616 32.9157 20.7804 31.9897 21.5604 31.2097C22.3404 30.4297 23.2664 29.811 24.2856 29.3888C25.3047 28.9667 26.397 28.7494 27.5001 28.7494C28.6032 28.7494 29.6955 28.9667 30.7146 29.3888C31.7338 29.811 32.6598 30.4297 33.4398 31.2097C34.2198 31.9897 34.8385 32.9157 35.2607 33.9349C35.9579 35.618 34.4232 37.1494 32.6014 37.1494H22.3988Z" fill="#F53838"/>
</svg>
